<svg width="512" height="512" viewBox="0 0 512 512" xmlns="http://www.w3.org/2000/svg">
  <defs>
    <linearGradient id="bg" x1="0" y1="0" x2="1" y2="1">
      <stop offset="0" stop-color="#3d7bd6"/>
      <stop offset="1" stop-color="#23386b"/>
    </linearGradient>
    <linearGradient id="page" x1="0" y1="0" x2="0" y2="1">
      <stop offset="0" stop-color="#ffffff"/>
      <stop offset="1" stop-color="#eef1f6"/>
    </linearGradient>
  </defs>
  <rect width="512" height="512" rx="116" fill="url(#bg)"/>
  <g>
    <path d="M256 168 C204 142 150 140 100 154 L100 350 C150 336 204 338 256 364 Z" fill="url(#page)"/>
    <path d="M256 168 C308 142 362 140 412 154 L412 350 C362 336 308 338 256 364 Z" fill="url(#page)"/>
    <rect x="250" y="168" width="12" height="196" rx="6" fill="#c7d2e6"/>
  </g>
  <g stroke="#9fb1d4" stroke-width="10" stroke-linecap="round">
    <line x1="132" y1="196" x2="226" y2="206"/>
    <line x1="132" y1="232" x2="226" y2="242"/>
    <line x1="132" y1="268" x2="226" y2="278"/>
    <line x1="286" y1="206" x2="380" y2="196"/>
    <line x1="286" y1="242" x2="380" y2="232"/>
    <line x1="286" y1="278" x2="380" y2="268"/>
  </g>
  <circle cx="256" cy="408" r="26" fill="#ffffff"/>
  <path d="M244 404 L244 414 M268 404 L268 414 M244 409 L256 418 L268 409" stroke="#23386b" stroke-width="7" fill="none" stroke-linecap="round" stroke-linejoin="round"/>
</svg>
